# File created by Blade
# Date/Time:  Thu Jan 22 18:25:10 2015
# Frame Rate: 120.000 fps
#------------------------------------------------------
:FULLY-SPECIFIED
:DEGREES
1555
root -2.956850 33.282052 0.377736 5.061649 -4.091223 2.599547
RightUpLeg 2.099041 -3.048846 -2.334836
RightLeg 0.419808 -0.000000 -0.000000
RightFoot -11.097643 -3.230978 3.566677
RightToeBase 5.491839 -0.000000 -0.000000
LeftUpLeg 2.626768 4.890642 0.738125
LeftLeg 1.818442 -0.000000 -0.000000
LeftFoot -10.578353 3.435437 -9.964465
LeftToeBase 8.223291 -0.000000 -0.000000
Spine -9.452870 -5.361644 -3.274384
RightShoulder -19.108974 9.388979 -52.409458
RightArm 46.168797 65.289180 44.852731
RightForeArm 80.948691 -0.000000 106.543667
RightHand 12.053687 0.000000 2.076234
RightHandThumb1 -24.326973 -0.000000 -32.862282
LeftShoulder -27.595103 -14.861568 61.712114
LeftArm 118.425752 -57.045840 -80.043117
LeftForeArm -23.441339 -0.000000 99.504438
LeftHand -1.254428 -0.000000 -1.156396
LeftHandThumb1 -26.253704 0.000000 33.147579
Head 23.059673 11.289337 -0.337500
1556
root -2.952747 33.280365 0.377838 5.054283 -4.077745 2.610590
RightUpLeg 2.108671 -3.053110 -2.351568
RightLeg 0.419222 -0.000000 -0.000000
RightFoot -11.118564 -3.240984 3.563639
RightToeBase 5.525292 -0.000000 -0.000000
LeftUpLeg 2.627867 4.863122 0.722400
LeftLeg 1.824289 -0.000000 -0.000000
LeftFoot -10.605875 3.460272 -9.909195
LeftToeBase 8.301592 -0.000000 -0.000000
Spine -9.449471 -5.302960 -3.218637
RightShoulder -19.142125 9.481352 -52.577783
RightArm 46.868433 65.085027 45.073900
RightForeArm 81.257165 -0.000000 105.669544
RightHand 12.119663 -0.000000 3.354188
RightHandThumb1 -24.326973 -0.000000 -32.862282
LeftShoulder -27.584267 -14.815085 61.624730
LeftArm 117.940187 -57.234593 -79.896636
LeftForeArm -23.777799 -0.000000 98.042148
LeftHand -1.315915 -0.000000 -1.176201
LeftHandThumb1 -26.253704 0.000000 33.147579
Head 23.115547 11.176867 -0.294623
1557
root -2.948663 33.280065 0.375448 5.040825 -4.054044 2.620377
RightUpLeg 2.120640 -3.059362 -2.364767
RightLeg 0.421402 -0.000000 -0.000000
RightFoot -11.129636 -3.264292 3.572387
RightToeBase 5.495336 -0.000000 -0.000000
LeftUpLeg 2.618652 4.847786 0.710198
LeftLeg 1.852693 -0.000000 -0.000000
LeftFoot -10.598638 3.424959 -9.960056
LeftToeBase 8.229477 -0.000000 -0.000000
Spine -9.423521 -5.221745 -3.167629
RightShoulder -19.184329 9.657697 -52.752626
RightArm 47.479944 64.822785 45.147810
RightForeArm 81.562171 -0.000000 104.777529
RightHand 12.242254 -0.000000 4.517887
RightHandThumb1 -24.326973 -0.000000 -32.862282
LeftShoulder -27.660955 -14.682851 61.533576
LeftArm 117.654835 -57.255691 -79.994986
LeftForeArm -24.027843 -0.000000 96.608507
LeftHand -1.318100 -0.000000 -1.364675
LeftHandThumb1 -26.253704 0.000000 33.147579
Head 23.151713 10.987485 -0.274286
1558
root -2.945170 33.278919 0.373033 5.039104 -4.030657 2.634447
RightUpLeg 2.118902 -3.072427 -2.380431
RightLeg 0.425849 -0.000000 -0.000000
RightFoot -11.151793 -3.275942 3.563824
RightToeBase 5.527262 -0.000000 -0.000000
LeftUpLeg 2.603323 4.834214 0.693948
LeftLeg 1.868670 -0.000000 -0.000000
LeftFoot -10.613223 3.432762 -9.887590
LeftToeBase 8.288093 -0.000000 -0.000000
Spine -9.412246 -5.120940 -3.121571
RightShoulder -19.244071 9.865642 -52.960072
RightArm 48.087755 64.530932 45.249481
RightForeArm 81.780431 -0.000000 103.836161
RightHand 12.334903 -0.000000 5.893028
RightHandThumb1 -24.326973 -0.000000 -32.862282
LeftShoulder -27.679234 -14.624577 61.423855
LeftArm 117.283529 -57.384985 -79.949307
LeftForeArm -24.533768 -0.000000 95.118769
LeftHand -1.167644 -0.000000 -1.331154
LeftHandThumb1 -26.253704 0.000000 33.147579
Head 23.156880 10.763760 -0.284594
1559
root -2.941067 33.277470 0.369923 5.049846 -4.006160 2.651790
RightUpLeg 2.106005 -3.095254 -2.401147
RightLeg 0.425116 -0.000000 -0.000000
RightFoot -11.169404 -3.286875 3.564730
RightToeBase 5.552420 -0.000000 -0.000000
LeftUpLeg 2.571461 4.820712 0.672540
LeftLeg 1.889147 -0.000000 -0.000000
LeftFoot -10.621836 3.417957 -9.885616
LeftToeBase 8.252901 -0.000000 -0.000000
Spine -9.413857 -5.040438 -3.066843
RightShoulder -19.238793 10.139227 -53.149563
RightArm 48.629091 64.332819 45.216323
RightForeArm 81.783852 0.000000 102.822829
RightHand 12.380756 -0.000000 7.174603
RightHandThumb1 -24.326973 -0.000000 -32.862282
LeftShoulder -27.715122 -14.517988 61.267806
LeftArm 116.957293 -57.499631 -79.956306
LeftForeArm -25.133875 -0.000000 93.664112
LeftHand -1.040133 -0.000000 -1.509223
LeftHandThumb1 -26.253704 0.000000 33.147579
Head 23.146389 10.543400 -0.328932
